<?xml version="1.0" encoding="utf-8"?>
<!-- Designed by Vexels.com - 2016 All Rights Reserved - https://vexels.com/terms-and-conditions/  -->

<svg version="1.1" id="Capa_1" xmlns="http://www.w3.org/2000/svg" xmlns:xlink="http://www.w3.org/1999/xlink" x="0px"
     y="0px"
     width="1200px" height="1200px" viewBox="0 0 1200 1200" enable-background="new 0 0 1200 1200" xml:space="preserve">
<g>
	<polyline fill="#EB5C68" points="1059.797,315.465 603.383,573.666 140.152,315.5 599.993,50 1059.797,315.465 	"/>
    <polyline fill="#858BFF" points="118.458,351.787 118.458,884.06 579.08,1150 580.256,951.323 285.879,781.359 285.879,445.091
		118.458,351.787 	"/>
    <polyline fill="#F9CE4D" points="1081.541,351.727 914.117,446.443 914.117,781.359 622.527,949.712 621.348,1149.75
		1081.541,884.06 1081.541,351.727 	"/>
    <polyline fill="#E6D7D8" points="305.209,407.491 285.879,418.652 285.879,445.091 582.267,610.272 580.256,951.323
		599.993,962.72 622.527,949.712 624.527,610.272 914.117,446.443 914.117,418.652 895.941,408.16 603.383,573.666 305.209,407.491 
			"/>
    <polyline fill="#E63746"
              points="599.993,237.293 305.209,407.491 603.383,573.666 895.941,408.16 599.993,237.293 	"/>
    <polyline fill="#5C64FF"
              points="285.879,445.091 285.879,781.359 580.256,951.323 582.267,610.272 285.879,445.091 	"/>
    <polyline fill="#F6BE13"
              points="914.117,446.443 624.527,610.272 622.527,949.712 914.117,781.359 914.117,446.443 	"/>
</g>
</svg>
