<svg id="SvgjsSvg1001" width="288" height="288" xmlns="http://www.w3.org/2000/svg" version="1.1" xmlns:xlink="http://www.w3.org/1999/xlink" xmlns:svgjs="http://svgjs.com/svgjs"><defs id="SvgjsDefs1002"></defs><g id="SvgjsG1008" transform="matrix(1,0,0,1,0,0)"><svg xmlns="http://www.w3.org/2000/svg" width="288" height="288" viewBox="0 0 64 64"><g data-name="Layer 24" fill="#ffffff" class="color000 svgShape"><path d="M58.24,44.82a9.49,9.49,0,0,0-9.36-2.37L21.55,15.12C24.25,5.75,12.7-1.11,5.76,5.76s0,18.52,9.38,15.81L42.45,48.88C40.57,54.69,45.39,61.2,51.53,61,59.89,61.09,64.19,50.7,58.24,44.82ZM16.53,14.08l-2.45,2.45a1,1,0,0,1-.71.3c.05.09-3.55-.94-3.61-.94a1,1,0,0,1-.71-.7l-.9-3.36a1,1,0,0,1,.26-1l2.45-2.45a1,1,0,0,1,1-.26l3.36.9a1,1,0,0,1,.7.71l.9,3.35A1,1,0,0,1,16.53,14.08ZM56.29,53.32l-3,3a1,1,0,0,1-.7.29,1.09,1.09,0,0,1-.26,0L48.3,55.46a1,1,0,0,1-.7-.71l-1.09-4a1,1,0,0,1,.26-1l3-3a1,1,0,0,1,1-.26l4,1.09a1,1,0,0,1,.71.7l1.09,4.06A1,1,0,0,1,56.29,53.32Z" fill="#ffffff" class="color000 svgShape"></path><path d="M29.75 39.69l-.22-.33-4.88-4.88a1 1 0 00-1.42 0l-7.89 7.89C6 39.56-1.06 51.09 5.87 58.13S24.44 58 21.63 48.67l7.9-7.89A1.08 1.08 0 0029.75 39.69zm-12.1 10.9l-1.1 4.11a1 1 0 01-.71.71l-4.11 1.1a1 1 0 01-1-.26l-3-3a1 1 0 01-.26-1l1.1-4.11a1 1 0 01.71-.71l4.11-1.1a1 1 0 011 .26l3 3A1 1 0 0117.65 50.59zM34.48 24.65l4.88 4.88a1 1 0 001.42 0l7.34-7.36C55 24.61 62.32 18.09 60.75 11a1 1 0 00-1.08-.79 1.11 1.11 0 00-.61.28l-4 4-4.36-1.17L49.49 9l4-4a1.06 1.06 0 00.27-.81A1 1 0 0053 3.25C45.86 1.71 39.45 9 41.84 15.86l-7.36 7.37A1 1 0 0034.48 24.65z" fill="#ffffff" class="color000 svgShape"></path></g></svg></g></svg>